<svg width="222" height="28" viewBox="0 0 222 28" fill="none" xmlns="http://www.w3.org/2000/svg">
<path d="M211.409 2.48172C215.255 2.48172 218.707 4.01355 220.124 6.54227H220.125C221.669 9.30658 220.855 11.9688 219.065 13.8841C217.296 15.7784 214.533 17.0022 211.988 17.0022C211.734 17.0022 211.48 16.9924 211.228 16.9759C211.573 17.1075 211.935 17.1717 212.312 17.1839C213.262 17.2146 214.302 16.9278 215.374 16.5716C216.258 16.2776 217.203 15.9348 218.087 15.9348C219.12 15.9349 219.884 16.3048 220.373 16.9524C220.843 17.5755 221.007 18.3878 221.01 19.1888C221.014 20.7834 220.377 22.6004 219.688 23.5843L219.685 23.5901C218.063 25.8313 214.887 27.1604 211.375 27.1604C208.486 27.1604 205.72 26.283 203.612 24.6468L203.283 24.387C199.934 21.6342 198.307 16.8774 199.164 12.3997C200.235 6.5051 205.535 2.48179 211.409 2.48172ZM212.022 10.5481C211.758 10.5482 211.461 10.6739 211.21 10.8606C211.17 10.8905 211.134 10.9226 211.1 10.9524C211.276 11.0205 211.499 11.0764 211.75 11.0765C211.79 11.0765 211.897 11.0624 212.044 11.0159C212.185 10.9713 212.325 10.9087 212.432 10.8391C212.482 10.8062 212.514 10.7776 212.535 10.7571C212.49 10.7155 212.419 10.6638 212.321 10.6214C212.203 10.57 212.092 10.5481 212.022 10.5481Z" fill="#1A1920" stroke="#1A1920"/>
<path d="M189.462 2.48172C191.661 2.48181 193.871 3.37596 195.268 4.80399C197.715 7.27971 198.064 12.0197 195.551 16.4856C195.679 16.4803 195.807 16.4778 195.935 16.4778C198.347 16.4778 200.441 17.3777 201.453 18.9847L201.548 19.1429L201.55 19.1468C202.21 20.3337 202.348 21.4757 202.083 22.5159C201.821 23.5446 201.177 24.4244 200.363 25.1311C198.748 26.5344 196.354 27.3485 194.431 27.3304H194.429C192.027 27.2951 189.55 26.5579 187.798 25.4524V25.4515C184.707 23.5153 183.32 20.382 182.765 17.3616C182.21 14.3424 182.473 11.3763 182.732 9.66727H182.733C182.995 7.84279 183.55 6.0552 184.61 4.71415C185.69 3.34913 187.266 2.48172 189.462 2.48172Z" fill="#1A1920" stroke="#1A1920"/>
<path d="M179.957 1.63244C181.602 1.63257 183.118 2.28807 183.885 3.52502C184.679 4.75198 184.632 6.48955 183.82 7.73107C183.18 8.75186 182.054 9.40339 180.772 9.61877C181.48 9.74976 182.001 9.97145 182.195 10.0797C184.107 11.0184 184.998 12.703 185.396 14.4322C185.793 16.1508 185.72 17.9753 185.669 19.274V19.3414C185.6 21.1726 185.352 23.1662 184.505 24.7135C184.077 25.4962 183.49 26.1741 182.691 26.6539C181.892 27.134 180.909 27.3981 179.718 27.3981C177.59 27.398 176.123 26.5631 175.172 25.2311C174.243 23.9301 173.839 22.2018 173.7 20.4498L173.664 19.9235C173.589 18.6053 173.595 16.6842 174.027 14.8502C174.52 12.7619 175.6 10.6673 177.874 9.81701L177.882 9.81408L177.891 9.81115C178.161 9.72115 178.443 9.64835 178.733 9.59728C177.526 9.37095 176.48 8.76315 175.861 7.81115C175.067 6.62185 175.075 4.92144 175.777 3.71545L175.781 3.70763C176.574 2.40311 178.191 1.63244 179.957 1.63244Z" fill="#1A1920" stroke="#1A1920"/>
<path d="M159.514 3.25418C161.341 2.4292 163.582 2.09985 165.535 3.10477L165.723 3.20633L165.726 3.20731C167.784 4.38491 168.512 6.4576 168.766 7.78739C170.307 7.9071 172.549 8.37866 174.359 10.0354L174.549 10.2141L174.554 10.219V10.22C176.365 12.0448 177.029 14.5766 176.878 17.053C176.727 19.5271 175.762 22.003 174.237 23.7737L174.236 23.7727C172.255 26.1053 169.18 27.4124 165.852 27.4124C163.133 27.4123 160.288 26.5689 158.14 24.7835L158.138 24.7815C155.858 22.8694 154.909 20.1479 154.424 17.4202L154.423 17.4182C154.038 15.2181 154.02 12.2909 154.727 9.61649C155.432 6.94517 156.887 4.44467 159.513 3.25418H159.514ZM167.998 17.8323C167.659 17.8324 167.281 17.9888 166.967 18.2063C166.831 18.3004 166.721 18.398 166.643 18.4807C166.647 18.4845 166.652 18.4886 166.657 18.4925C166.782 18.5876 166.937 18.6723 167.026 18.7171C167.272 18.8312 167.674 18.875 168.011 18.7854C168.335 18.6991 168.473 18.5375 168.487 18.3177C168.493 18.2161 168.449 18.097 168.344 17.9925C168.236 17.885 168.102 17.8323 167.998 17.8323Z" fill="#1A1920" stroke="#1A1920"/>
<path d="M145.575 2.8303C148.732 2.50364 152.027 3.38372 154.352 5.7551L154.354 5.75608C156.766 8.23387 157.846 12.1714 157.284 16.2297L157.283 16.2287C156.755 20.3587 154.678 23.8352 151.596 25.6936L151.59 25.6975L151.589 25.6965C149.939 26.662 147.875 27.1926 145.853 27.1926C144.262 27.1926 142.614 26.8756 141.232 26.1526V26.1535C138.386 24.7162 136.295 21.826 135.484 18.2414L135.485 18.2405C134.568 14.4355 135.256 10.3467 137.249 7.50315L137.446 7.23167C139.347 4.69245 142.421 3.15669 145.575 2.8303ZM146.125 15.6418C145.585 15.6418 145.075 16.0784 144.981 16.5901L144.98 16.5979L144.979 16.6057C144.912 16.9135 144.993 17.2441 145.229 17.5588L145.234 17.5647C145.433 17.8376 145.714 17.9825 145.891 18.0051H145.954C146.138 18.0051 146.483 17.84 146.815 17.4211C147.122 17.0016 147.187 16.558 147.112 16.3108L147.061 16.1877C146.911 15.9063 146.57 15.6647 146.206 15.6418H146.125Z" fill="#1A1920" stroke="#1A1920"/>
<path d="M114.203 16.5052L114.22 16.6184L114.23 16.6653L114.233 16.7122C114.335 18.5173 114.45 20.5148 114.199 22.2845C113.964 23.9449 113.393 25.496 112.102 26.5061L111.822 26.7093L111.821 26.7083C110.98 27.242 109.965 27.5003 108.931 27.5003C107.993 27.5003 106.997 27.321 106.164 26.9085V26.9095C104.071 25.9319 103.017 23.8666 102.504 21.7278C101.989 19.5808 101.991 17.2559 102.095 15.5882L102.096 15.5813C102.292 13.006 102.583 8.47225 106.184 5.36551L106.543 5.06864C108.649 3.39665 111.384 2.48174 114.313 2.48172C116.407 2.48172 118.474 2.96496 120.239 3.87626C122.034 2.93355 124.044 2.48172 126.17 2.48172C129.379 2.48181 132.472 3.60547 134.588 5.6077H134.587C136.958 7.79561 137.526 10.5193 137.9 12.388C138.389 14.6508 138.566 17.7364 138.014 20.5071C137.465 23.2624 136.162 25.8448 133.574 26.8548H133.572C131.807 27.5372 129.489 27.6093 127.836 26.3059V26.305C126.467 25.2279 125.957 23.5818 125.824 21.8401C125.692 20.0994 125.93 18.1627 126.15 16.4065C126.288 15.2776 126.436 14.0517 126.444 13.0501C126.448 12.5478 126.417 12.1325 126.343 11.8284C126.264 11.5057 126.167 11.4212 126.138 11.4056L126.123 11.3977L126.109 11.3899C126.034 11.3427 125.821 11.3222 125.599 11.4173C125.51 11.462 125.387 11.5875 125.277 11.9075C125.169 12.225 125.1 12.6584 125.067 13.1878C125.002 14.245 125.083 15.5614 125.169 16.8431C125.287 18.5971 125.421 20.5347 125.196 22.2493C124.971 23.9653 124.374 25.5652 122.939 26.5315L122.938 26.5335C121.372 27.5742 119.039 27.7866 117.409 26.7034V26.7015C116.054 25.817 115.51 24.3207 115.32 22.6839C115.131 21.0469 115.281 19.1511 115.416 17.3489L115.417 17.3401C115.537 16.0257 115.652 14.6583 115.606 13.555C115.584 13.0023 115.522 12.5467 115.415 12.2112C115.305 11.8673 115.174 11.7327 115.078 11.6848L115.073 11.6819C114.854 11.5692 114.733 11.5692 114.68 11.5794C114.635 11.5879 114.576 11.6148 114.502 11.7161C114.33 11.9525 114.204 12.4218 114.143 13.0677C114.023 14.3316 114.181 15.8197 114.2 16.3138V16.3323C114.2 16.4048 114.2 16.4601 114.203 16.5052Z" fill="#1A1920" stroke="#1A1920"/>
<path d="M211.409 1.34928C215.255 1.34928 218.707 2.88111 220.124 5.40983H220.125C221.669 8.17414 220.855 10.8363 219.065 12.7516C217.296 14.646 214.533 15.8698 211.988 15.8698C211.734 15.8698 211.48 15.8599 211.228 15.8434C211.573 15.975 211.935 16.0392 212.312 16.0514C213.262 16.0822 214.302 15.7953 215.374 15.4391C216.258 15.1452 217.203 14.8024 218.087 14.8024C219.12 14.8024 219.884 15.1724 220.373 15.82C220.843 16.443 221.007 17.2553 221.01 18.0563C221.014 19.6509 220.377 21.4679 219.688 22.4518L219.685 22.4577C218.063 24.6988 214.887 26.028 211.375 26.028C208.486 26.0279 205.72 25.1506 203.612 23.5143L203.283 23.2546C199.934 20.5017 198.307 15.7449 199.164 11.2673C200.235 5.37266 205.535 1.34935 211.409 1.34928ZM212.022 9.41569C211.758 9.41572 211.461 9.5415 211.21 9.72819C211.17 9.75806 211.134 9.7902 211.1 9.81998C211.276 9.88804 211.499 9.94401 211.75 9.94401C211.79 9.94401 211.897 9.92992 212.044 9.88346C212.185 9.83888 212.325 9.77625 212.432 9.7067C212.482 9.67378 212.514 9.64511 212.535 9.62467C212.49 9.58305 212.419 9.53131 212.321 9.48893C212.203 9.43752 212.092 9.41569 212.022 9.41569Z" fill="#F9A1D9" stroke="#1A1920"/>
<path d="M189.462 1.34928C191.661 1.34937 193.871 2.24352 195.268 3.67155C197.715 6.14727 198.064 10.8873 195.551 15.3532C195.679 15.3478 195.807 15.3454 195.935 15.3454C198.347 15.3454 200.441 16.2452 201.453 17.8522L201.548 18.0104L201.55 18.0143C202.21 19.2013 202.348 20.3432 202.083 21.3835C201.821 22.4122 201.177 23.292 200.363 23.9987C198.748 25.402 196.354 26.216 194.431 26.1979H194.429C192.027 26.1627 189.55 25.4255 187.798 24.32V24.319C184.707 22.3829 183.32 19.2495 182.765 16.2292C182.21 13.2099 182.473 10.2439 182.732 8.53483H182.733C182.995 6.71034 183.55 4.92276 184.61 3.5817C185.69 2.21669 187.266 1.34928 189.462 1.34928Z" fill="#F9A1D9" stroke="#1A1920"/>
<path d="M179.957 0.5C181.602 0.500127 183.118 1.15563 183.885 2.39258C184.679 3.61954 184.632 5.35711 183.82 6.59863C183.18 7.61942 182.054 8.27095 180.772 8.48633C181.48 8.61733 182.001 8.83902 182.195 8.94727C184.107 9.88597 184.998 11.5706 185.396 13.2998C185.793 15.0184 185.72 16.8428 185.669 18.1416V18.209C185.6 20.0401 185.352 22.0338 184.505 23.5811C184.077 24.3637 183.49 25.0416 182.691 25.5215C181.892 26.0016 180.909 26.2656 179.718 26.2656C177.59 26.2655 176.123 25.4307 175.172 24.0986C174.243 22.7977 173.839 21.0694 173.7 19.3174L173.664 18.791C173.589 17.4729 173.595 15.5518 174.027 13.7178C174.52 11.6295 175.6 9.53489 177.874 8.68457L177.882 8.68164L177.891 8.67871C178.161 8.58871 178.443 8.51592 178.733 8.46484C177.526 8.23851 176.48 7.63071 175.861 6.67871C175.067 5.48941 175.075 3.789 175.777 2.58301L175.781 2.5752C176.574 1.27067 178.191 0.5 179.957 0.5Z" fill="#F9A1D9" stroke="#1A1920"/>
<path d="M159.514 2.12174C161.341 1.29675 163.582 0.967403 165.535 1.97233L165.723 2.07389L165.726 2.07487C167.784 3.25247 168.512 5.32515 168.766 6.65495C170.307 6.77465 172.549 7.24622 174.359 8.90299L174.549 9.0817L174.554 9.08659V9.08756C176.365 10.9124 177.029 13.4441 176.878 15.9206C176.727 18.3947 175.762 20.8706 174.237 22.6413L174.236 22.6403C172.255 24.9729 169.18 26.2799 165.852 26.2799C163.133 26.2799 160.288 25.4365 158.14 23.651L158.138 23.6491C155.858 21.737 154.909 19.0154 154.424 16.2878L154.423 16.2858C154.038 14.0857 154.02 11.1584 154.727 8.48405C155.432 5.81273 156.887 3.31223 159.513 2.12174H159.514ZM167.998 16.6999C167.659 16.6999 167.281 16.8563 166.967 17.0739C166.831 17.168 166.721 17.2656 166.643 17.3483C166.647 17.3521 166.652 17.3561 166.657 17.36C166.782 17.4552 166.937 17.5398 167.026 17.5846C167.272 17.6988 167.674 17.7426 168.011 17.653C168.335 17.5667 168.473 17.405 168.487 17.1852C168.493 17.0837 168.449 16.9646 168.344 16.86C168.236 16.7525 168.102 16.6999 167.998 16.6999Z" fill="#F9A1D9" stroke="#1A1920"/>
<path d="M145.575 1.69786C148.732 1.37119 152.027 2.25128 154.352 4.62266L154.354 4.62364C156.766 7.10143 157.846 11.039 157.284 15.0973L157.283 15.0963C156.755 19.2263 154.678 22.7027 151.596 24.5611L151.59 24.565L151.589 24.5641C149.939 25.5296 147.875 26.0601 145.853 26.0602C144.262 26.0602 142.614 25.7432 141.232 25.0201V25.0211C138.386 23.5838 136.295 20.6936 135.484 17.109L135.485 17.108C134.568 13.303 135.256 9.21422 137.249 6.37071L137.446 6.09922C139.347 3.56 142.421 2.02425 145.575 1.69786ZM146.125 14.5094C145.585 14.5094 145.075 14.9459 144.981 15.4576L144.98 15.4654L144.979 15.4732C144.912 15.7811 144.993 16.1116 145.229 16.4264L145.234 16.4322C145.433 16.7052 145.714 16.8501 145.891 16.8727H145.954C146.138 16.8727 146.483 16.7076 146.815 16.2887C147.122 15.8691 147.187 15.4255 147.112 15.1783L147.061 15.0553C146.911 14.7739 146.57 14.5322 146.206 14.5094H146.125Z" fill="#F9A1D9" stroke="#1A1920"/>
<path d="M114.203 15.3727L114.22 15.486L114.23 15.5329L114.233 15.5798C114.335 17.3849 114.45 19.3823 114.199 21.152C113.964 22.8125 113.393 24.3636 112.102 25.3737L111.822 25.5768L111.821 25.5758C110.98 26.1095 109.965 26.3678 108.931 26.3678C107.993 26.3678 106.997 26.1886 106.164 25.776V25.777C104.071 24.7994 103.017 22.7341 102.504 20.5954C101.989 18.4484 101.991 16.1234 102.095 14.4557L102.096 14.4489C102.292 11.8736 102.583 7.3398 106.184 4.23307L106.543 3.9362C108.649 2.26421 111.384 1.3493 114.313 1.34928C116.407 1.34928 118.474 1.83252 120.239 2.74381C122.034 1.8011 124.044 1.34928 126.17 1.34928C129.379 1.34937 132.472 2.47303 134.588 4.47526H134.587C136.958 6.66316 137.526 9.38688 137.9 11.2555C138.389 13.5183 138.566 16.6039 138.014 19.3747C137.465 22.13 136.162 24.7124 133.574 25.7223H133.572C131.807 26.4048 129.489 26.4769 127.836 25.1735V25.1725C126.467 24.0954 125.957 22.4493 125.824 20.7077C125.692 18.967 125.93 17.0302 126.15 15.2741C126.288 14.1452 126.436 12.9192 126.444 11.9176C126.448 11.4153 126.417 11 126.343 10.696C126.264 10.3733 126.167 10.2887 126.138 10.2731L126.123 10.2653L126.109 10.2575C126.034 10.2103 125.821 10.1898 125.599 10.2848C125.51 10.3296 125.387 10.455 125.277 10.7751C125.169 11.0925 125.1 11.526 125.067 12.0553C125.002 13.1125 125.083 14.429 125.169 15.7106C125.287 17.4646 125.421 19.4023 125.196 21.1169C124.971 22.8329 124.374 24.4327 122.939 25.3991L122.938 25.401C121.372 26.4417 119.039 26.6541 117.409 25.571V25.569C116.054 24.6846 115.51 23.1883 115.32 21.5514C115.131 19.9144 115.281 18.0187 115.416 16.2165L115.417 16.2077C115.537 14.8932 115.652 13.5258 115.606 12.4225C115.584 11.8699 115.522 11.4143 115.415 11.0788C115.305 10.7349 115.174 10.6003 115.078 10.5524L115.073 10.5495C114.854 10.4368 114.733 10.4367 114.68 10.4469C114.635 10.4555 114.576 10.4823 114.502 10.5837C114.33 10.8201 114.204 11.2894 114.143 11.9352C114.023 13.1992 114.181 14.6873 114.2 15.1813V15.1999C114.2 15.2724 114.2 15.3277 114.203 15.3727Z" fill="#F9A1D9" stroke="#1A1920"/>
<path d="M88.3965 2.35715C90.255 2.35715 91.989 2.68971 93.4111 3.2927C94.7392 3.85583 95.828 4.67001 96.4658 5.70285L96.5879 5.91184L96.5889 5.91379C97.3798 7.38107 97.4193 9.4972 96.5859 11.0105V11.0114C96.2439 11.6283 95.8205 12.0724 95.3262 12.3572C94.8318 12.6418 94.2974 12.7493 93.7617 12.7419C92.7133 12.7275 91.6138 12.2723 90.6553 11.7937C90.3386 11.6355 89.616 11.2775 89.0127 11.157C88.6946 11.0934 88.5351 11.1235 88.4834 11.1521C88.4758 11.1563 88.4708 11.1588 88.4629 11.1794C88.452 11.2081 88.4363 11.2775 88.4473 11.4109C88.4584 11.4229 88.4784 11.4449 88.5166 11.4734C88.6207 11.5507 88.7857 11.6388 89.0127 11.7351C89.4675 11.928 90.0449 12.1026 90.625 12.2956C92.6025 12.8649 95.2391 13.6533 96.6768 16.0095H96.6777C98.2357 18.5659 97.6919 21.7695 96.1201 24.0886L96.1152 24.0954C94.6315 26.2071 91.769 27.0792 89.5273 27.3572L89.5283 27.3581C88.8481 27.4654 88.1401 27.4997 87.4785 27.4997C85.454 27.4997 83.1256 27.1013 81.2842 26.0652C79.4781 25.0488 78.124 23.4029 78.041 20.9577L78.0371 20.7185C78.0203 19.8574 78.1937 18.8138 78.627 17.9157C79.0632 17.0116 79.7947 16.1997 80.9111 15.9519L80.917 15.9499C81.5423 15.8192 82.1491 15.9093 82.7109 16.0974C82.4794 15.9654 82.2494 15.828 82.0264 15.6804C80.8778 14.92 79.8406 13.9156 79.2637 12.4851C78.3022 10.1208 79.0076 7.60705 79.915 6.15696C81.4343 3.71558 84.6623 2.35722 88.3965 2.35715ZM84.3672 16.9284C84.732 17.1578 85.0729 17.3897 85.3701 17.5818H85.3711C85.7476 17.8262 86.0646 18.0587 86.4453 18.2937C86.809 18.5182 87.1499 18.691 87.4688 18.7741L87.4805 18.7771L87.5801 18.7956C87.6796 18.8051 87.7757 18.7885 87.8418 18.7556C87.8812 18.7359 87.9006 18.7153 87.9102 18.7009C87.9146 18.6942 87.9195 18.6831 87.9238 18.6657C87.9099 18.649 87.8886 18.6208 87.8486 18.5857C87.7309 18.4822 87.5439 18.3598 87.2949 18.2243C86.801 17.9557 86.1547 17.6848 85.5596 17.447L85.5469 17.4421C85.1718 17.2807 84.7741 17.1114 84.3672 16.9284Z" fill="#1A1920" stroke="#1A1920"/>
<path d="M71.7334 2.35715C75.468 2.35715 78.8319 3.79448 80.3301 6.18332L80.4697 6.41672V6.4177C82.0182 9.18252 81.2017 11.8453 79.4082 13.7605C77.6343 15.6546 74.8647 16.8776 72.3145 16.8777C72.0589 16.8777 71.8037 16.8679 71.5498 16.8513C71.8961 16.9831 72.2595 17.0471 72.6377 17.0593C73.5907 17.0901 74.6346 16.8032 75.709 16.447C76.5956 16.153 77.5417 15.8104 78.4277 15.8103C79.4626 15.8103 80.2286 16.1804 80.7188 16.8279C81.1903 17.451 81.3551 18.2639 81.3574 19.0652C81.3619 20.6598 80.7237 22.4758 80.0332 23.4597L80.0283 23.4665L80.0273 23.4655C78.4021 25.7065 75.2197 27.0359 71.6992 27.0359C68.8013 27.0358 66.026 26.1577 63.9131 24.5193V24.5183C60.3374 21.8119 58.5725 16.8954 59.459 12.2751C60.5327 6.37975 65.8456 2.35726 71.7334 2.35715ZM72.3486 10.4236C72.0826 10.4236 71.784 10.5501 71.5322 10.737C71.4921 10.7668 71.456 10.7982 71.4219 10.8279C71.599 10.896 71.8226 10.9519 72.0752 10.9519C72.1155 10.9519 72.2233 10.9377 72.3701 10.8913C72.5111 10.8468 72.6516 10.7841 72.7588 10.7146C72.809 10.682 72.8413 10.653 72.8623 10.6325C72.8171 10.5911 72.7465 10.5389 72.6494 10.4968C72.5307 10.4453 72.4192 10.4236 72.3486 10.4236Z" fill="#1A1920" stroke="#1A1920"/>
<path d="M38.1045 16.4509L38.1211 16.5652L38.1328 16.6111L38.1348 16.6589C38.2375 18.4734 38.3547 20.4815 38.1006 22.2605C37.8461 24.0415 37.2062 25.6965 35.707 26.6989L35.6953 26.7058C34.8452 27.2414 33.8185 27.4997 32.7734 27.4997C31.8208 27.4997 30.809 27.3199 29.9648 26.9021V26.9011C27.8567 25.9175 26.7922 23.8475 26.2734 21.7009C25.7519 19.5427 25.7546 17.2054 25.8594 15.529V15.5222C26.0644 12.8496 26.3725 8.08114 30.3594 4.95774L30.7666 4.6511C32.8371 3.16536 35.4433 2.35715 38.2227 2.35715C40.3418 2.35721 42.4343 2.84377 44.2207 3.76047C46.0371 2.81191 48.0724 2.35715 50.2246 2.35715C53.4686 2.35721 56.595 3.48439 58.7354 5.49289C61.1386 7.69214 61.714 10.4323 62.0938 12.3122C62.5885 14.5868 62.767 17.6882 62.208 20.4734C61.6519 23.2439 60.3336 25.8373 57.7168 26.8513L57.7148 26.8523C55.9299 27.5374 53.5878 27.6091 51.917 26.3015L51.667 26.0915C50.4687 25.0121 50.0065 23.4552 49.8809 21.8132C49.747 20.0634 49.9881 18.1164 50.2109 16.3513C50.3498 15.2167 50.5004 13.9849 50.5088 12.9782C50.513 12.4732 50.4812 12.0553 50.4062 11.7497C50.3268 11.4259 50.2277 11.3398 50.1963 11.323L50.1816 11.3152L50.168 11.3073C50.0879 11.2579 49.8691 11.2393 49.6426 11.3357C49.5509 11.3818 49.4262 11.5089 49.3154 11.8298C49.2053 12.1489 49.1359 12.584 49.1025 13.1159C49.036 14.1785 49.1193 15.5015 49.2061 16.7898C49.3259 18.553 49.4601 20.5016 49.2324 22.2253C49.0045 23.9508 48.4004 25.5579 46.9502 26.528L46.9473 26.529C45.3657 27.573 43.0112 27.7858 41.3652 26.7019V26.7029C39.9911 25.8155 39.4395 24.3099 39.2471 22.6618C39.0549 21.0162 39.2079 19.1102 39.3447 17.2986L39.3457 17.2907C39.467 15.9693 39.5839 14.5942 39.5381 13.4851C39.5152 12.9298 39.4514 12.4726 39.3428 12.1355C39.2316 11.7905 39.1004 11.6526 39.001 11.6032L38.9951 11.6003C38.7722 11.4867 38.6476 11.486 38.5908 11.4968C38.5428 11.506 38.4819 11.5346 38.4072 11.6364C38.2328 11.8744 38.1047 12.3459 38.043 12.9948C37.9222 14.2653 38.0823 15.7618 38.1016 16.2585V16.2771C38.1016 16.3501 38.1018 16.4056 38.1045 16.4509Z" fill="#1A1920" stroke="#1A1920"/>
<path d="M23.3438 1.42858C25.0016 1.42868 26.5295 2.08902 27.2979 3.33581H27.2969C28.0906 4.56869 28.0405 6.31118 27.2207 7.55358L27.2197 7.5526C26.5744 8.57266 25.4422 9.22252 24.1553 9.43639C24.8602 9.56556 25.3817 9.78482 25.584 9.89538L25.9336 10.0799C27.6224 11.0469 28.4339 12.6366 28.8105 14.2655C29.2071 15.9805 29.1359 17.8001 29.085 19.1014V19.1883C29.0159 21.0249 28.7654 23.0243 27.9141 24.576C27.4833 25.3611 26.8936 26.0413 26.0908 26.5223C25.2877 27.0035 24.3008 27.2674 23.1035 27.2674C20.9649 27.2674 19.49 26.4312 18.5342 25.0956C17.7173 23.954 17.3053 22.4838 17.1211 20.9569L17.0557 20.2997C16.9513 19.0021 16.8865 16.7865 17.3838 14.6844C17.8794 12.5896 18.9648 10.49 21.25 9.63757L21.2676 9.63171C21.5419 9.54078 21.8264 9.46713 22.1211 9.41589C20.9022 9.18963 19.846 8.57749 19.2236 7.61803V7.61706C18.4292 6.42483 18.4389 4.72357 19.1436 3.51647L19.1484 3.50866C19.9453 2.20085 21.5695 1.42858 23.3438 1.42858Z" fill="#1A1920" stroke="#1A1920"/>
<path d="M7.53516 2.35715C9.73779 2.35719 11.9504 3.25389 13.3496 4.68528H13.3506C15.8024 7.16731 16.1517 11.9203 13.6328 16.3982C13.7614 16.3928 13.8899 16.3904 14.0186 16.3904C16.4355 16.3904 18.5323 17.2922 19.5459 18.903L19.6406 19.0613L19.6436 19.0652C20.3047 20.2548 20.4422 21.3987 20.1768 22.4411C19.9141 23.4722 19.27 24.3547 18.4551 25.0632C16.837 26.4701 14.4395 27.2854 12.5127 27.2673H12.5098C10.1042 27.2319 7.62519 26.4934 5.87012 25.3855C2.77345 23.4446 1.38419 20.3025 0.828125 17.2741C0.272335 14.2472 0.535804 11.2736 0.795898 9.56028C1.05815 7.73119 1.6149 5.93972 2.67676 4.59543C3.75758 3.22716 5.3356 2.35715 7.53516 2.35715Z" fill="#1A1920" stroke="#1A1920"/>
<path d="M88.3965 1.42857C90.255 1.42857 91.989 1.76113 93.4111 2.36412C94.7392 2.92724 95.828 3.74143 96.4658 4.77427L96.5879 4.98326L96.5889 4.98521C97.3798 6.45249 97.4193 8.56862 96.5859 10.0819V10.0829C96.2439 10.6997 95.8205 11.1438 95.3262 11.4286C94.8318 11.7132 94.2974 11.8207 93.7617 11.8133C92.7133 11.7989 91.6138 11.3438 90.6553 10.8651C90.3386 10.707 89.616 10.3489 89.0127 10.2284C88.6946 10.1649 88.5351 10.1949 88.4834 10.2235C88.4758 10.2277 88.4708 10.2302 88.4629 10.2508C88.452 10.2795 88.4363 10.3489 88.4473 10.4823C88.4584 10.4944 88.4784 10.5164 88.5166 10.5448C88.6207 10.6221 88.7857 10.7102 89.0127 10.8065C89.4675 10.9994 90.0449 11.174 90.625 11.367C92.6025 11.9363 95.2391 12.7247 96.6768 15.0809H96.6777C98.2357 17.6373 97.6919 20.8409 96.1201 23.16L96.1152 23.1669C94.6315 25.2785 91.769 26.1506 89.5273 26.4286L89.5283 26.4295C88.8481 26.5368 88.1401 26.5711 87.4785 26.5711C85.454 26.5711 83.1256 26.1727 81.2842 25.1366C79.4781 24.1202 78.124 22.4743 78.041 20.0292L78.0371 19.7899C78.0203 18.9288 78.1937 17.8852 78.627 16.9872C79.0632 16.083 79.7947 15.2711 80.9111 15.0233L80.917 15.0213C81.5423 14.8907 82.1491 14.9808 82.7109 15.1688C82.4794 15.0368 82.2494 14.8994 82.0264 14.7518C80.8778 13.9914 79.8406 12.9871 79.2637 11.5565C78.3022 9.19219 79.0076 6.67847 79.915 5.22837C81.4343 2.787 84.6623 1.42864 88.3965 1.42857ZM84.3672 15.9999C84.732 16.2292 85.0729 16.4611 85.3701 16.6532H85.3711C85.7476 16.8976 86.0646 17.1301 86.4453 17.3651C86.809 17.5896 87.1499 17.7625 87.4688 17.8456L87.4805 17.8485L87.5801 17.867C87.6796 17.8765 87.7757 17.86 87.8418 17.827C87.8812 17.8073 87.9006 17.7867 87.9102 17.7723C87.9146 17.7656 87.9195 17.7545 87.9238 17.7372C87.9099 17.7204 87.8886 17.6922 87.8486 17.6571C87.7309 17.5536 87.5439 17.4312 87.2949 17.2958C86.801 17.0271 86.1547 16.7562 85.5596 16.5184L85.5469 16.5135C85.1718 16.3522 84.7741 16.1829 84.3672 15.9999Z" fill="#ABFF63" stroke="#1A1920"/>
<path d="M71.7334 1.42857C75.468 1.42857 78.8319 2.8659 80.3301 5.25474L80.4697 5.48814V5.48912C82.0182 8.25394 81.2017 10.9167 79.4082 12.8319C77.6343 14.7261 74.8647 15.949 72.3145 15.9491C72.0589 15.9491 71.8037 15.9393 71.5498 15.9227C71.8961 16.0545 72.2595 16.1185 72.6377 16.1307C73.5907 16.1615 74.6346 15.8746 75.709 15.5184C76.5956 15.2245 77.5417 14.8818 78.4277 14.8817C79.4626 14.8817 80.2286 15.2518 80.7188 15.8993C81.1903 16.5224 81.3551 17.3354 81.3574 18.1366C81.3619 19.7313 80.7237 21.5473 80.0332 22.5311L80.0283 22.5379L80.0273 22.537C78.4021 24.7779 75.2197 26.1073 71.6992 26.1073C68.8013 26.1072 66.026 25.2291 63.9131 23.5907V23.5897C60.3374 20.8833 58.5725 15.9669 59.459 11.3465C60.5327 5.45117 65.8456 1.42868 71.7334 1.42857ZM72.3486 9.49498C72.0826 9.49498 71.784 9.62153 71.5322 9.80845C71.4921 9.83825 71.456 9.86957 71.4219 9.89927C71.599 9.96746 71.8226 10.0233 72.0752 10.0233C72.1155 10.0233 72.2233 10.0091 72.3701 9.96275C72.5111 9.91818 72.6516 9.85551 72.7588 9.78599C72.809 9.7534 72.8413 9.72438 72.8623 9.70396C72.8171 9.66249 72.7465 9.61035 72.6494 9.56822C72.5307 9.51675 72.4192 9.49502 72.3486 9.49498Z" fill="#ABFF63" stroke="#1A1920"/>
<path d="M38.1045 15.5223L38.1211 15.6366L38.1328 15.6825L38.1348 15.7303C38.2375 17.5448 38.3547 19.5529 38.1006 21.3319C37.8461 23.1129 37.2062 24.7679 35.707 25.7704L35.6953 25.7772C34.8452 26.3129 33.8185 26.5711 32.7734 26.5711C31.8208 26.5711 30.809 26.3913 29.9648 25.9735V25.9725C27.8567 24.9889 26.7922 22.919 26.2734 20.7723C25.7519 18.6141 25.7546 16.2768 25.8594 14.6004V14.5936C26.0644 11.9211 26.3725 7.15256 30.3594 4.02916L30.7666 3.72252C32.8371 2.23678 35.4433 1.42857 38.2227 1.42857C40.3418 1.42863 42.4343 1.91519 44.2207 2.83189C46.0371 1.88333 48.0724 1.42857 50.2246 1.42857C53.4686 1.42863 56.595 2.55581 58.7354 4.56431C61.1386 6.76355 61.714 9.50375 62.0938 11.3836C62.5885 13.6582 62.767 16.7596 62.208 19.5448C61.6519 22.3153 60.3336 24.9087 57.7168 25.9227L57.7148 25.9237C55.9299 26.6089 53.5878 26.6805 51.917 25.3729L51.667 25.1629C50.4687 24.0835 50.0065 22.5266 49.8809 20.8846C49.747 19.1348 49.9881 17.1879 50.2109 15.4227C50.3498 14.2881 50.5004 13.0563 50.5088 12.0497C50.513 11.5447 50.4812 11.1268 50.4062 10.8211C50.3268 10.4973 50.2277 10.4112 50.1963 10.3944L50.1816 10.3866L50.168 10.3788C50.0879 10.3293 49.8691 10.3107 49.6426 10.4071C49.5509 10.4532 49.4262 10.5803 49.3154 10.9012C49.2053 11.2203 49.1359 11.6554 49.1025 12.1874C49.036 13.2499 49.1193 14.5729 49.2061 15.8612C49.3259 17.6245 49.4601 19.573 49.2324 21.2967C49.0045 23.0222 48.4004 24.6293 46.9502 25.5995L46.9473 25.6004C45.3657 26.6444 43.0112 26.8572 41.3652 25.7733V25.7743C39.9911 24.8869 39.4395 23.3813 39.2471 21.7333C39.0549 20.0876 39.2079 18.1816 39.3447 16.37L39.3457 16.3622C39.467 15.0407 39.5839 13.6656 39.5381 12.5565C39.5152 12.0012 39.4514 11.5441 39.3428 11.2069C39.2316 10.8619 39.1004 10.724 39.001 10.6747L38.9951 10.6717C38.7722 10.5581 38.6476 10.5574 38.5908 10.5682C38.5428 10.5774 38.4819 10.606 38.4072 10.7079C38.2328 10.9458 38.1047 11.4174 38.043 12.0663C37.9222 13.3367 38.0823 14.8332 38.1016 15.3299V15.3485C38.1016 15.4215 38.1018 15.4771 38.1045 15.5223Z" fill="#ABFF63" stroke="#1A1920"/>
<path d="M23.3438 0.5C25.0016 0.500099 26.5295 1.16044 27.2979 2.40723H27.2969C28.0906 3.64011 28.0405 5.38259 27.2207 6.625L27.2197 6.62402C26.5744 7.64408 25.4422 8.29393 24.1553 8.50781C24.8602 8.63697 25.3817 8.85624 25.584 8.9668L25.9336 9.15137C27.6224 10.1183 28.4339 11.708 28.8105 13.3369C29.2071 15.0519 29.1359 16.8715 29.085 18.1729V18.2598C29.0159 20.0964 28.7654 22.0957 27.9141 23.6475C27.4833 24.4325 26.8936 25.1128 26.0908 25.5938C25.2877 26.0749 24.3008 26.3389 23.1035 26.3389C20.9649 26.3389 19.49 25.5027 18.5342 24.167C17.7173 23.0254 17.3053 21.5553 17.1211 20.0283L17.0557 19.3711C16.9513 18.0735 16.8865 15.8579 17.3838 13.7559C17.8794 11.661 18.9648 9.56137 21.25 8.70898L21.2676 8.70312C21.5419 8.61219 21.8264 8.53855 22.1211 8.4873C20.9022 8.26105 19.846 7.64891 19.2236 6.68945V6.68848C18.4292 5.49625 18.4389 3.79499 19.1436 2.58789L19.1484 2.58008C19.9453 1.27227 21.5695 0.5 23.3438 0.5Z" fill="#ABFF63" stroke="#1A1920"/>
<path d="M7.53516 1.42857C9.73779 1.4286 11.9504 2.32531 13.3496 3.75669H13.3506C15.8024 6.23873 16.1517 10.9917 13.6328 15.4696C13.7614 15.4642 13.8899 15.4618 14.0186 15.4618C16.4355 15.4618 18.5323 16.3636 19.5459 17.9745L19.6406 18.1327L19.6436 18.1366C20.3047 19.3262 20.4422 20.4702 20.1768 21.5126C19.9141 22.5436 19.27 23.4261 18.4551 24.1346C16.837 25.5415 14.4395 26.3569 12.5127 26.3387H12.5098C10.1042 26.3034 7.62519 25.5648 5.87012 24.4569C2.77345 22.516 1.38419 19.374 0.828125 16.3456C0.272335 13.3186 0.535804 10.3451 0.795898 8.63169C1.05815 6.8026 1.6149 5.01114 2.67676 3.66685C3.75758 2.29858 5.3356 1.42857 7.53516 1.42857Z" fill="#ABFF63" stroke="#1A1920"/>
</svg>
